PathFileType	4	(X/Y/Z)	D:\TRACE\v60_Jaco2_6-2-23\JustBodyDRS_Motion2_3-platform.trc
DataRate	CameraRate	NumFrames	NumMarkers	Units	OrigDataRate	OrigDataStartFrame	OrigNumFrames
100.00	100.00	      23	5	mm	100.00	2563	      6834
Frame#	Time	Left_Front			Right_Front			Left_Aft			Right_Aft			Post			
		X1	Y1	Z1	X2	Y2	Z2	X3	Y3	Z3	X4	Y4	Z4	X5	Y5	Z5	

2563	25.620	-824.04340	-48.24843	-650.13013	746.09558	-47.01105	-655.19238	-732.24176	46.18530	481.16592	710.00659	47.18950	490.81906	-38.92838	1218.81311	-1086.89417	
2564	25.630	-823.27399	-47.85573	-649.95624	747.00372	-46.24245	-655.01489	-731.37537	45.61974	481.34555	711.24371	46.74559	490.97183	-37.43993	1219.85522	-1085.82861	
2565	25.640	-822.37476	-47.33042	-649.95300	747.76685	-45.71925	-655.02112	-730.38245	45.46688	481.48529	711.97382	46.27439	491.17618	-36.45275	1220.72278	-1084.32800	
2566	25.650	-821.41541	-46.92722	-649.65869	748.87042	-45.13187	-655.00079	-729.55408	44.91655	481.78741	712.72693	45.75067	491.35617	-35.60294	1221.70276	-1082.63989	
2567	25.660	-820.07953	-46.23055	-649.70941	749.89636	-44.36234	-654.92853	-728.53369	44.43560	481.96695	713.82294	45.40121	491.50937	-34.73414	1222.83875	-1081.39282	
2568	25.670	-819.14630	-45.45290	-649.67853	750.83081	-43.80127	-654.75684	-727.26514	44.12828	482.17303	714.77832	44.84801	491.47543	-33.73318	1224.00977	-1079.54932	
2569	25.680	-818.29645	-44.49354	-649.58777	751.86871	-42.98275	-654.45642	-726.51935	43.68737	482.31473	715.25562	44.12878	491.86328	-32.34262	1225.31335	-1078.00562	
2570	25.690	-817.40253	-44.00383	-649.34174	752.84912	-42.32108	-654.58868	-725.36646	43.06118	482.56491	716.45178	43.43460	491.68979	-31.73617	1226.33545	-1075.88403	
2571	25.700	-816.14087	-43.28492	-649.30835	753.89722	-41.51950	-654.51306	-724.38306	42.58514	482.92532	716.78815	42.50658	491.63797	-30.32864	1227.07666	-1074.24414	
2572	25.710	-815.15247	-42.40834	-649.23077	754.73102	-40.63270	-654.28345	-723.57306	42.09564	483.06839	717.79413	41.90174	491.66208	-29.71267	1229.00464	-1071.85522	
2573	25.720	-814.26398	-41.67300	-649.04602	756.00751	-40.00683	-654.20959	-722.23859	41.38675	483.27081	721.62360	43.42522	494.05542	-28.66951	1230.39136	-1069.55090	
2574	25.730	-812.97382	-40.40433	-649.00415	757.12274	-38.89695	-654.08997	-721.29987	40.94223	483.49091	722.39001	42.54712	493.85834	-27.21188	1231.56250	-1067.73682	
2575	25.740	-811.91516	-39.72369	-648.75006	757.99097	-37.99826	-653.86597	-720.24670	40.36352	483.72061	722.91919	41.45239	493.78833	-26.44977	1233.33728	-1065.52051	
2576	25.750	-810.79730	-38.83547	-648.52240	759.15747	-37.02959	-653.71649	-719.04034	39.57905	483.95029	723.23218	40.45780	493.07416	-25.39234	1234.79431	-1063.08545	
2577	25.760	-809.87250	-37.86870	-648.47412	760.14954	-36.23874	-653.82581	-718.12378	39.08313	484.09906	724.42029	39.80927	493.47470	-24.39110	1236.23218	-1060.94678	
2578	25.770	-808.89001	-36.47391	-648.39862	761.20795	-34.84321	-653.32129	-716.99200	38.36272	484.45474	725.41833	39.21812	494.39886	-23.30989	1238.18933	-1058.60571	
2579	25.780	-807.58185	-35.45761	-648.26190	762.46863	-33.79925	-653.15411	-715.68304	37.59702	484.84671	726.83136	38.50420	494.56436	-21.86218	1239.75061	-1056.23083	
2580	25.790	-806.50079	-34.48945	-648.01038	763.78430	-32.95309	-652.98370	-714.71906	37.19776	484.97153	727.64142	37.57842	494.70239	-21.32920	1241.73999	-1054.13513	
2581	25.800	-805.59882	-33.81778	-647.73480	764.70123	-32.05420	-652.83136	-713.46979	36.35656	485.43402	728.81604	36.58750	494.73602	-19.80644	1243.25745	-1052.07788	
2582	25.810	-804.47797	-32.52450	-647.43646	765.82019	-30.56268	-652.56366	-712.56274	35.51797	485.77628	729.68140	35.57152	495.29941	-18.65486	1245.28174	-1049.41248	
2583	25.820	-803.04639	-31.15174	-647.27417	766.96246	-29.17272	-652.30200	-711.28033	34.30939	486.14380	730.82397	34.75621	495.33054	-16.70748	1247.22070	-1047.62451	
2584	25.830	-801.93903	-29.62094	-647.03253	768.16162	-28.21001	-652.18781	-710.34888	33.72913	486.55222	732.29034	34.06528	496.21597	-16.44092	1249.53821	-1045.44104	
2585	25.840	-800.74603	-28.23664	-646.65253	769.07092	-26.41497	-651.95508	-709.16272	32.65381	486.75211	732.96613	32.90860	496.67401	-15.07507	1251.80640	-1043.08105	
